# xmcd
#
# Track frame offsets:
# 150
# 4236
# 7360
# 10123
#
# Disc length: 338 seconds
#
#
# Revision: 0
# Processed by: cddbd v1.5.1PL2 Copyright (c) Steve Scherf et al.
# Submitted via: FreeRIP 2.944 
#
DISCID=26015004
DTITLE=Dolly Parton - Those Were The Days
DYEAR=2005
DGENRE=Country
TTITLE0=If I Were A Carpenter
TTITLE1=Where Have All The Flowers Gone
TTITLE2=Me And Bobby McGee
TTITLE3=Where Do The Children Play
EXTD=
EXTT0=
EXTT1=
EXTT2=
EXTT3=
PLAYORDER=
